<?xml version="1.0"?>
<!-- Generated by svgof -->
<svg width="21.000mm" height="12.000mm"
     viewBox="8.000 -20.000 21.000 12.000"
     xmlns="http://www.w3.org/2000/svg"
     xmlns:xlink="http://www.w3.org/1999/xlink">
<rect x="8.000" y="-20.000" width="21.000" height="12.000" fill="white" />
<polyline points="14.000,-10.000 9.000,-10.000 13.000,-14.000 14.000,-13.000 17.000,-16.000 21.000,-12.000 18.000,-12.000 21.000,-9.000 13.000,-9.000 14.000,-10.000" fill="cyan" stroke="blue" stroke-width="0.020" />
<polyline points="12.000,-12.000 11.000,-11.000 13.000,-11.000 12.000,-12.000" fill="white" stroke="red" stroke-width="0.020" />
<polyline points="16.000,-12.000 15.000,-12.000 15.500,-11.500 16.000,-12.000" fill="white" stroke="red" stroke-width="0.020" />
<polyline points="28.000,-15.000 20.000,-15.000 24.000,-19.000 28.000,-15.000" fill="cyan" stroke="blue" stroke-width="0.020" />
<polyline points="20.863,-9.003 20.952,-9.036" fill="none" stroke="green" stroke-width="0.020" />
<polyline points="20.571,-9.003 20.874,-9.114" fill="none" stroke="green" stroke-width="0.020" />
<polyline points="20.278,-9.003 20.796,-9.192" fill="none" stroke="green" stroke-width="0.020" />
<polyline points="19.986,-9.003 20.718,-9.270" fill="none" stroke="green" stroke-width="0.020" />
<polyline points="19.694,-9.003 20.640,-9.348" fill="none" stroke="green" stroke-width="0.020" />
<polyline points="19.401,-9.003 20.561,-9.426" fill="none" stroke="green" stroke-width="0.020" />
<polyline points="19.109,-9.003 20.483,-9.504" fill="none" stroke="green" stroke-width="0.020" />
<polyline points="18.817,-9.003 20.405,-9.582" fill="none" stroke="green" stroke-width="0.020" />
<polyline points="18.524,-9.003 20.327,-9.660" fill="none" stroke="green" stroke-width="0.020" />
<polyline points="18.232,-9.003 20.249,-9.738" fill="none" stroke="green" stroke-width="0.020" />
<polyline points="17.939,-9.003 20.171,-9.816" fill="none" stroke="green" stroke-width="0.020" />
<polyline points="17.647,-9.003 20.093,-9.894" fill="none" stroke="green" stroke-width="0.020" />
<polyline points="17.355,-9.003 20.015,-9.972" fill="none" stroke="green" stroke-width="0.020" />
<polyline points="17.062,-9.003 19.937,-10.050" fill="none" stroke="green" stroke-width="0.020" />
<polyline points="16.770,-9.003 19.859,-10.128" fill="none" stroke="green" stroke-width="0.020" />
<polyline points="16.478,-9.003 19.781,-10.206" fill="none" stroke="green" stroke-width="0.020" />
<polyline points="16.185,-9.003 19.703,-10.284" fill="none" stroke="green" stroke-width="0.020" />
<polyline points="15.893,-9.003 19.625,-10.362" fill="none" stroke="green" stroke-width="0.020" />
<polyline points="15.600,-9.003 19.547,-10.440" fill="none" stroke="green" stroke-width="0.020" />
<polyline points="15.308,-9.003 19.469,-10.518" fill="none" stroke="green" stroke-width="0.020" />
<polyline points="15.016,-9.003 19.391,-10.596" fill="none" stroke="green" stroke-width="0.020" />
<polyline points="14.723,-9.003 19.313,-10.674" fill="none" stroke="green" stroke-width="0.020" />
<polyline points="14.431,-9.003 19.235,-10.752" fill="none" stroke="green" stroke-width="0.020" />
<polyline points="14.138,-9.003 19.157,-10.830" fill="none" stroke="green" stroke-width="0.020" />
<polyline points="13.846,-9.003 19.079,-10.908" fill="none" stroke="green" stroke-width="0.020" />
<polyline points="13.554,-9.003 19.001,-10.986" fill="none" stroke="green" stroke-width="0.020" />
<polyline points="13.261,-9.003 18.923,-11.064" fill="none" stroke="green" stroke-width="0.020" />
<polyline points="13.033,-9.027 18.845,-11.142" fill="none" stroke="green" stroke-width="0.020" />
<polyline points="13.200,-9.194 18.767,-11.220" fill="none" stroke="green" stroke-width="0.020" />
<polyline points="20.919,-12.003 20.966,-12.021" fill="none" stroke="green" stroke-width="0.020" />
<polyline points="13.367,-9.361 18.689,-11.298" fill="none" stroke="green" stroke-width="0.020" />
<polyline points="20.627,-12.003 20.888,-12.099" fill="none" stroke="green" stroke-width="0.020" />
<polyline points="13.534,-9.529 18.611,-11.376" fill="none" stroke="green" stroke-width="0.020" />
<polyline points="20.334,-12.003 20.810,-12.177" fill="none" stroke="green" stroke-width="0.020" />
<polyline points="13.702,-9.696 18.533,-11.454" fill="none" stroke="green" stroke-width="0.020" />
<polyline points="20.042,-12.003 20.732,-12.255" fill="none" stroke="green" stroke-width="0.020" />
<polyline points="13.869,-9.863 18.455,-11.532" fill="none" stroke="green" stroke-width="0.020" />
<polyline points="19.749,-12.003 20.654,-12.333" fill="none" stroke="green" stroke-width="0.020" />
<polyline points="13.962,-10.003 18.377,-11.610" fill="none" stroke="green" stroke-width="0.020" />
<polyline points="19.457,-12.003 20.576,-12.411" fill="none" stroke="green" stroke-width="0.020" />
<polyline points="13.670,-10.003 18.299,-11.688" fill="none" stroke="green" stroke-width="0.020" />
<polyline points="19.165,-12.003 20.498,-12.489" fill="none" stroke="green" stroke-width="0.020" />
<polyline points="13.377,-10.003 18.221,-11.766" fill="none" stroke="green" stroke-width="0.020" />
<polyline points="18.872,-12.003 20.420,-12.567" fill="none" stroke="green" stroke-width="0.020" />
<polyline points="13.085,-10.003 18.143,-11.844" fill="none" stroke="green" stroke-width="0.020" />
<polyline points="18.580,-12.003 20.342,-12.645" fill="none" stroke="green" stroke-width="0.020" />
<polyline points="12.793,-10.003 18.065,-11.922" fill="none" stroke="green" stroke-width="0.020" />
<polyline points="18.288,-12.003 20.264,-12.723" fill="none" stroke="green" stroke-width="0.020" />
<polyline points="12.500,-10.003 20.186,-12.801" fill="none" stroke="green" stroke-width="0.020" />
<polyline points="12.208,-10.003 20.108,-12.879" fill="none" stroke="green" stroke-width="0.020" />
<polyline points="11.915,-10.003 20.030,-12.957" fill="none" stroke="green" stroke-width="0.020" />
<polyline points="11.623,-10.003 19.952,-13.035" fill="none" stroke="green" stroke-width="0.020" />
<polyline points="11.331,-10.003 15.475,-11.512" fill="none" stroke="green" stroke-width="0.020" />
<polyline points="15.542,-11.536 19.874,-13.113" fill="none" stroke="green" stroke-width="0.020" />
<polyline points="11.038,-10.003 15.397,-11.590" fill="none" stroke="green" stroke-width="0.020" />
<polyline points="15.710,-11.704 19.796,-13.191" fill="none" stroke="green" stroke-width="0.020" />
<polyline points="10.746,-10.003 15.319,-11.668" fill="none" stroke="green" stroke-width="0.020" />
<polyline points="15.877,-11.871 19.718,-13.269" fill="none" stroke="green" stroke-width="0.020" />
<polyline points="10.454,-10.003 15.241,-11.746" fill="none" stroke="green" stroke-width="0.020" />
<polyline points="15.949,-12.003 19.640,-13.347" fill="none" stroke="green" stroke-width="0.020" />
<polyline points="10.161,-10.003 12.890,-10.997" fill="none" stroke="green" stroke-width="0.020" />
<polyline points="12.983,-11.030 15.163,-11.824" fill="none" stroke="green" stroke-width="0.020" />
<polyline points="15.656,-12.003 19.562,-13.425" fill="none" stroke="green" stroke-width="0.020" />
<polyline points="9.869,-10.003 12.597,-10.997" fill="none" stroke="green" stroke-width="0.020" />
<polyline points="12.904,-11.108 15.085,-11.902" fill="none" stroke="green" stroke-width="0.020" />
<polyline points="15.364,-12.003 19.484,-13.503" fill="none" stroke="green" stroke-width="0.020" />
<polyline points="9.576,-10.003 12.305,-10.997" fill="none" stroke="green" stroke-width="0.020" />
<polyline points="12.826,-11.186 15.007,-11.980" fill="none" stroke="green" stroke-width="0.020" />
<polyline points="15.071,-12.003 19.406,-13.581" fill="none" stroke="green" stroke-width="0.020" />
<polyline points="9.284,-10.003 12.013,-10.997" fill="none" stroke="green" stroke-width="0.020" />
<polyline points="12.748,-11.264 19.328,-13.659" fill="none" stroke="green" stroke-width="0.020" />
<polyline points="9.020,-10.014 11.720,-10.997" fill="none" stroke="green" stroke-width="0.020" />
<polyline points="12.670,-11.342 19.250,-13.737" fill="none" stroke="green" stroke-width="0.020" />
<polyline points="9.187,-10.181 11.428,-10.997" fill="none" stroke="green" stroke-width="0.020" />
<polyline points="12.592,-11.420 19.172,-13.815" fill="none" stroke="green" stroke-width="0.020" />
<polyline points="9.354,-10.348 11.136,-10.997" fill="none" stroke="green" stroke-width="0.020" />
<polyline points="12.514,-11.498 19.094,-13.893" fill="none" stroke="green" stroke-width="0.020" />
<polyline points="9.521,-10.516 11.075,-11.081" fill="none" stroke="green" stroke-width="0.020" />
<polyline points="12.436,-11.576 19.016,-13.971" fill="none" stroke="green" stroke-width="0.020" />
<polyline points="9.689,-10.683 11.242,-11.248" fill="none" stroke="green" stroke-width="0.020" />
<polyline points="12.358,-11.654 18.938,-14.049" fill="none" stroke="green" stroke-width="0.020" />
<polyline points="9.856,-10.850 11.410,-11.416" fill="none" stroke="green" stroke-width="0.020" />
<polyline points="12.280,-11.732 18.860,-14.127" fill="none" stroke="green" stroke-width="0.020" />
<polyline points="10.023,-11.017 11.577,-11.583" fill="none" stroke="green" stroke-width="0.020" />
<polyline points="12.202,-11.811 18.782,-14.205" fill="none" stroke="green" stroke-width="0.020" />
<polyline points="10.191,-11.185 11.744,-11.750" fill="none" stroke="green" stroke-width="0.020" />
<polyline points="12.124,-11.889 18.704,-14.283" fill="none" stroke="green" stroke-width="0.020" />
<polyline points="10.358,-11.352 11.912,-11.918" fill="none" stroke="green" stroke-width="0.020" />
<polyline points="12.046,-11.967 18.626,-14.361" fill="none" stroke="green" stroke-width="0.020" />
<polyline points="10.525,-11.519 18.548,-14.439" fill="none" stroke="green" stroke-width="0.020" />
<polyline points="10.693,-11.687 18.470,-14.517" fill="none" stroke="green" stroke-width="0.020" />
<polyline points="10.860,-11.854 18.392,-14.595" fill="none" stroke="green" stroke-width="0.020" />
<polyline points="11.027,-12.021 13.915,-13.072" fill="none" stroke="green" stroke-width="0.020" />
<polyline points="14.172,-13.166 18.314,-14.673" fill="none" stroke="green" stroke-width="0.020" />
<polyline points="11.195,-12.189 13.837,-13.150" fill="none" stroke="green" stroke-width="0.020" />
<polyline points="14.339,-13.333 18.236,-14.751" fill="none" stroke="green" stroke-width="0.020" />
<polyline points="11.362,-12.356 13.759,-13.228" fill="none" stroke="green" stroke-width="0.020" />
<polyline points="14.506,-13.500 18.158,-14.829" fill="none" stroke="green" stroke-width="0.020" />
<polyline points="11.529,-12.523 13.681,-13.306" fill="none" stroke="green" stroke-width="0.020" />
<polyline points="14.674,-13.668 18.080,-14.907" fill="none" stroke="green" stroke-width="0.020" />
<polyline points="11.697,-12.691 13.603,-13.384" fill="none" stroke="green" stroke-width="0.020" />
<polyline points="14.841,-13.835 18.002,-14.985" fill="none" stroke="green" stroke-width="0.020" />
<polyline points="11.864,-12.858 13.525,-13.462" fill="none" stroke="green" stroke-width="0.020" />
<polyline points="15.008,-14.002 17.924,-15.064" fill="none" stroke="green" stroke-width="0.020" />
<polyline points="12.031,-13.025 13.447,-13.540" fill="none" stroke="green" stroke-width="0.020" />
<polyline points="15.176,-14.170 17.846,-15.142" fill="none" stroke="green" stroke-width="0.020" />
<polyline points="12.199,-13.193 13.369,-13.618" fill="none" stroke="green" stroke-width="0.020" />
<polyline points="15.343,-14.337 17.768,-15.220" fill="none" stroke="green" stroke-width="0.020" />
<polyline points="12.366,-13.360 13.291,-13.696" fill="none" stroke="green" stroke-width="0.020" />
<polyline points="15.510,-14.504 17.690,-15.298" fill="none" stroke="green" stroke-width="0.020" />
<polyline points="12.533,-13.527 13.213,-13.775" fill="none" stroke="green" stroke-width="0.020" />
<polyline points="15.678,-14.672 17.612,-15.376" fill="none" stroke="green" stroke-width="0.020" />
<polyline points="12.700,-13.695 13.135,-13.853" fill="none" stroke="green" stroke-width="0.020" />
<polyline points="15.845,-14.839 17.534,-15.454" fill="none" stroke="green" stroke-width="0.020" />
<polyline points="12.868,-13.862 13.057,-13.931" fill="none" stroke="green" stroke-width="0.020" />
<polyline points="16.012,-15.006 17.456,-15.532" fill="none" stroke="green" stroke-width="0.020" />
<polyline points="16.180,-15.174 17.378,-15.610" fill="none" stroke="green" stroke-width="0.020" />
<polyline points="16.347,-15.341 17.300,-15.688" fill="none" stroke="green" stroke-width="0.020" />
<polyline points="16.514,-15.508 17.221,-15.766" fill="none" stroke="green" stroke-width="0.020" />
<polyline points="16.682,-15.676 17.143,-15.844" fill="none" stroke="green" stroke-width="0.020" />
<polyline points="16.849,-15.843 17.065,-15.922" fill="none" stroke="green" stroke-width="0.020" />
<polyline points="27.863,-15.003 27.952,-15.036" fill="none" stroke="green" stroke-width="0.020" />
<polyline points="27.571,-15.003 27.874,-15.114" fill="none" stroke="green" stroke-width="0.020" />
<polyline points="27.278,-15.003 27.796,-15.192" fill="none" stroke="green" stroke-width="0.020" />
<polyline points="26.986,-15.003 27.718,-15.270" fill="none" stroke="green" stroke-width="0.020" />
<polyline points="26.694,-15.003 27.640,-15.348" fill="none" stroke="green" stroke-width="0.020" />
<polyline points="26.401,-15.003 27.561,-15.426" fill="none" stroke="green" stroke-width="0.020" />
<polyline points="26.109,-15.003 27.483,-15.504" fill="none" stroke="green" stroke-width="0.020" />
<polyline points="25.817,-15.003 27.405,-15.582" fill="none" stroke="green" stroke-width="0.020" />
<polyline points="25.524,-15.003 27.327,-15.660" fill="none" stroke="green" stroke-width="0.020" />
<polyline points="25.232,-15.003 27.249,-15.738" fill="none" stroke="green" stroke-width="0.020" />
<polyline points="24.939,-15.003 27.171,-15.816" fill="none" stroke="green" stroke-width="0.020" />
<polyline points="24.647,-15.003 27.093,-15.894" fill="none" stroke="green" stroke-width="0.020" />
<polyline points="24.355,-15.003 27.015,-15.972" fill="none" stroke="green" stroke-width="0.020" />
<polyline points="24.062,-15.003 26.937,-16.050" fill="none" stroke="green" stroke-width="0.020" />
<polyline points="23.770,-15.003 26.859,-16.128" fill="none" stroke="green" stroke-width="0.020" />
<polyline points="23.478,-15.003 26.781,-16.206" fill="none" stroke="green" stroke-width="0.020" />
<polyline points="23.185,-15.003 26.703,-16.284" fill="none" stroke="green" stroke-width="0.020" />
<polyline points="22.893,-15.003 26.625,-16.362" fill="none" stroke="green" stroke-width="0.020" />
<polyline points="22.600,-15.003 26.547,-16.440" fill="none" stroke="green" stroke-width="0.020" />
<polyline points="22.308,-15.003 26.469,-16.518" fill="none" stroke="green" stroke-width="0.020" />
<polyline points="22.016,-15.003 26.391,-16.596" fill="none" stroke="green" stroke-width="0.020" />
<polyline points="21.723,-15.003 26.313,-16.674" fill="none" stroke="green" stroke-width="0.020" />
<polyline points="21.431,-15.003 26.235,-16.752" fill="none" stroke="green" stroke-width="0.020" />
<polyline points="21.138,-15.003 26.157,-16.830" fill="none" stroke="green" stroke-width="0.020" />
<polyline points="20.846,-15.003 26.079,-16.908" fill="none" stroke="green" stroke-width="0.020" />
<polyline points="20.554,-15.003 26.001,-16.986" fill="none" stroke="green" stroke-width="0.020" />
<polyline points="20.261,-15.003 25.923,-17.064" fill="none" stroke="green" stroke-width="0.020" />
<polyline points="20.033,-15.027 25.845,-17.142" fill="none" stroke="green" stroke-width="0.020" />
<polyline points="20.200,-15.194 25.767,-17.220" fill="none" stroke="green" stroke-width="0.020" />
<polyline points="20.367,-15.361 25.689,-17.298" fill="none" stroke="green" stroke-width="0.020" />
<polyline points="20.534,-15.529 25.611,-17.376" fill="none" stroke="green" stroke-width="0.020" />
<polyline points="20.702,-15.696 25.533,-17.454" fill="none" stroke="green" stroke-width="0.020" />
<polyline points="20.869,-15.863 25.455,-17.532" fill="none" stroke="green" stroke-width="0.020" />
<polyline points="21.036,-16.030 25.377,-17.610" fill="none" stroke="green" stroke-width="0.020" />
<polyline points="21.204,-16.198 25.299,-17.688" fill="none" stroke="green" stroke-width="0.020" />
<polyline points="21.371,-16.365 25.221,-17.766" fill="none" stroke="green" stroke-width="0.020" />
<polyline points="21.538,-16.532 25.143,-17.844" fill="none" stroke="green" stroke-width="0.020" />
<polyline points="21.706,-16.700 25.065,-17.922" fill="none" stroke="green" stroke-width="0.020" />
<polyline points="21.873,-16.867 24.987,-18.000" fill="none" stroke="green" stroke-width="0.020" />
<polyline points="22.040,-17.034 24.909,-18.078" fill="none" stroke="green" stroke-width="0.020" />
<polyline points="22.208,-17.202 24.831,-18.156" fill="none" stroke="green" stroke-width="0.020" />
<polyline points="22.375,-17.369 24.753,-18.234" fill="none" stroke="green" stroke-width="0.020" />
<polyline points="22.542,-17.536 24.675,-18.312" fill="none" stroke="green" stroke-width="0.020" />
<polyline points="22.710,-17.704 24.597,-18.390" fill="none" stroke="green" stroke-width="0.020" />
<polyline points="22.877,-17.871 24.519,-18.468" fill="none" stroke="green" stroke-width="0.020" />
<polyline points="23.044,-18.038 24.441,-18.547" fill="none" stroke="green" stroke-width="0.020" />
<polyline points="23.212,-18.206 24.363,-18.625" fill="none" stroke="green" stroke-width="0.020" />
<polyline points="23.379,-18.373 24.285,-18.703" fill="none" stroke="green" stroke-width="0.020" />
<polyline points="23.546,-18.540 24.207,-18.781" fill="none" stroke="green" stroke-width="0.020" />
<polyline points="23.713,-18.708 24.129,-18.859" fill="none" stroke="green" stroke-width="0.020" />
<polyline points="23.881,-18.875 24.051,-18.937" fill="none" stroke="green" stroke-width="0.020" />
</svg>
